# xmcd CD database file
# Copyright (C) 1997 Ti Kan
# 
# Track frame offsets:
#     150
#     16025
#     31837
#     44575
#     61237
#     74912
#     87525
#     101650
#     114962
#     129162
# 
# Disc length: 1845 seconds
# 
# Revision: 1
# Processed by: cddbd v1.4b41PL1 Copyright (c) Steve Scherf et al.
# Submitted via: DiscPlay 4.0.2
# 
DISCID=8107330a
DTITLE=Anne Murray - New Kind of Feeling
DYEAR=1900
DGENRE=
TTITLE0=Shadows in the Moonlight
TTITLE1=You've Got What It Takes
TTITLE2=I Just Fall In Love Again
TTITLE3=Take This Heart
TTITLE4=Yucatan Cafe
TTITLE5=For No Reason At All
TTITLE6=Rainin' In My Heart
TTITLE7=That's Why I Love You
TTITLE8=(He Can't Help It If) He's Not You
TTITLE9=Heaven Is Here
EXTD=
EXTT0=
EXTT1=
EXTT2=
EXTT3=
EXTT4=
EXTT5=
EXTT6=
EXTT7=
EXTT8=
EXTT9=
PLAYORDER=
